<?xml version="1.0" encoding="UTF-8"?>
<svg xmlns="http://www.w3.org/2000/svg" xmlns:xlink="http://www.w3.org/1999/xlink" width="2834.64" height="2267.72" viewBox="0 0 2834.64 2267.72">
<defs>
<clipPath id="clip-0">

</clipPath>
<linearGradient id="linear-pattern-0" gradientUnits="userSpaceOnUse" x1="0.250629" y1="0" x2="2.113951" y2="0" gradientTransform="matrix(-0.0000532, -1217.02, 1217.02, -0.0000532, 1417.32, 2572.74)">
<stop offset="0" stop-color="rgb(93.8797%, 94.05365%, 94.100952%)" stop-opacity="1"/>
<stop offset="0.0078125" stop-color="rgb(93.882751%, 94.099426%, 94.250488%)" stop-opacity="1"/>
<stop offset="0.015625" stop-color="rgb(94.006348%, 94.184875%, 94.46106%)" stop-opacity="1"/>
<stop offset="0.03125" stop-color="rgb(94.200134%, 94.245911%, 94.525146%)" stop-opacity="1"/>
<stop offset="0.0390625" stop-color="rgb(94.351196%, 94.363403%, 94.563293%)" stop-opacity="1"/>
<stop offset="0.046875" stop-color="rgb(94.55719%, 94.613647%, 94.711304%)" stop-opacity="1"/>
<stop offset="0.0625" stop-color="rgb(94.709778%, 94.786072%, 94.960022%)" stop-opacity="1"/>
<stop offset="0.078125" stop-color="rgb(94.915771%, 95.03479%, 95.181274%)" stop-opacity="1"/>
<stop offset="0.09375" stop-color="rgb(95.252991%, 95.330811%, 95.433044%)" stop-opacity="1"/>
<stop offset="0.109375" stop-color="rgb(95.446777%, 95.407104%, 95.63446%)" stop-opacity="1"/>
<stop offset="0.117188" stop-color="rgb(95.600891%, 95.559692%, 95.727539%)" stop-opacity="1"/>
<stop offset="0.125" stop-color="rgb(95.806885%, 95.809937%, 95.820618%)" stop-opacity="1"/>
<stop offset="0.132812" stop-color="rgb(95.901489%, 95.925903%, 95.936584%)" stop-opacity="1"/>
<stop offset="0.140625" stop-color="rgb(95.901489%, 95.935059%, 96.127319%)" stop-opacity="1"/>
<stop offset="0.148438" stop-color="rgb(95.94574%, 95.996094%, 96.264648%)" stop-opacity="1"/>
<stop offset="0.15625" stop-color="rgb(96.154785%, 96.247864%, 96.360779%)" stop-opacity="1"/>
<stop offset="0.171875" stop-color="rgb(96.316528%, 96.444702%, 96.434021%)" stop-opacity="1"/>
<stop offset="0.179687" stop-color="rgb(96.488953%, 96.505737%, 96.612549%)" stop-opacity="1"/>
<stop offset="0.1875" stop-color="rgb(96.682739%, 96.575928%, 96.813965%)" stop-opacity="1"/>
<stop offset="0.195312" stop-color="rgb(96.714783%, 96.723938%, 96.899414%)" stop-opacity="1"/>
<stop offset="0.203125" stop-color="rgb(96.852112%, 96.954346%, 96.990967%)" stop-opacity="1"/>
<stop offset="0.21875" stop-color="rgb(97.050476%, 97.073364%, 97.116089%)" stop-opacity="1"/>
<stop offset="0.226562" stop-color="rgb(97.203064%, 97.203064%, 97.349548%)" stop-opacity="1"/>
<stop offset="0.234375" stop-color="rgb(97.412109%, 97.462463%, 97.547913%)" stop-opacity="1"/>
<stop offset="0.25" stop-color="rgb(97.566223%, 97.625732%, 97.608948%)" stop-opacity="1"/>
<stop offset="0.265625" stop-color="rgb(97.763062%, 97.697449%, 97.807312%)" stop-opacity="1"/>
<stop offset="0.273437" stop-color="rgb(97.941589%, 97.932434%, 98.088074%)" stop-opacity="1"/>
<stop offset="0.28125" stop-color="rgb(98.114014%, 98.175049%, 98.187256%)" stop-opacity="1"/>
<stop offset="0.296875" stop-color="rgb(98.309326%, 98.265076%, 98.33374%)" stop-opacity="1"/>
<stop offset="0.304687" stop-color="rgb(98.355103%, 98.394775%, 98.577881%)" stop-opacity="1"/>
<stop offset="0.3125" stop-color="rgb(98.461914%, 98.623657%, 98.739624%)" stop-opacity="1"/>
<stop offset="0.328125" stop-color="rgb(98.664856%, 98.770142%, 98.789978%)" stop-opacity="1"/>
<stop offset="0.335937" stop-color="rgb(98.81134%, 98.81897%, 98.841858%)" stop-opacity="1"/>
<stop offset="0.34375" stop-color="rgb(99.009705%, 98.919678%, 99.061584%)" stop-opacity="1"/>
<stop offset="0.359375" stop-color="rgb(99.1745%, 99.169922%, 99.308777%)" stop-opacity="1"/>
<stop offset="0.367187" stop-color="rgb(99.362183%, 99.3927%, 99.394226%)" stop-opacity="1"/>
<stop offset="0.375" stop-color="rgb(99.559021%, 99.455261%, 99.406433%)" stop-opacity="1"/>
<stop offset="0.382812" stop-color="rgb(99.589539%, 99.612427%, 99.613953%)" stop-opacity="1"/>
<stop offset="0.390625" stop-color="rgb(99.729919%, 99.859619%, 99.906921%)" stop-opacity="1"/>
<stop offset="0.40625" stop-color="rgb(99.931335%, 99.977112%, 99.995422%)" stop-opacity="1"/>
<stop offset="0.4375" stop-color="rgb(100%, 100%, 100%)" stop-opacity="1"/>
<stop offset="0.5" stop-color="rgb(100%, 100%, 100%)" stop-opacity="1"/>
<stop offset="1" stop-color="rgb(100%, 100%, 100%)" stop-opacity="1"/>
</linearGradient>
<clipPath id="clip-1">
<path clip-rule="nonzero" d="M 1933 1366 L 2834.640625 1366 L 2834.640625 2267.71875 L 1933 2267.71875 Z M 1933 1366 "/>
</clipPath>
</defs>
<g clip-path="url(#clip-0)">
<path fill-rule="nonzero" fill="url(#linear-pattern-0)" d="M 0 2267.71875 L 2834.601562 2267.71875 L 2834.601562 0.0195312 L 0 0.0195312 Z M 0 2267.71875 "/>
</g>
<g clip-path="url(#clip-1)">
<path fill-rule="evenodd" fill="rgb(97.257996%, 62.362671%, 11.183167%)" fill-opacity="1" d="M 1933.109375 2267.71875 L 2834.640625 1366.160156 L 2834.640625 2267.71875 Z M 1933.109375 2267.71875 "/>
</g>
<path fill-rule="nonzero" fill="rgb(97.257996%, 62.362671%, 11.183167%)" fill-opacity="1" d="M 728.234375 1849.859375 L 736.980469 1849.859375 L 736.980469 1829.71875 L 752.988281 1801.710938 L 743.085938 1801.710938 L 735.625 1815.890625 C 734.066406 1818.871094 732.710938 1822.328125 732.710938 1822.328125 L 732.574219 1822.328125 C 732.503906 1822.398438 731.214844 1818.871094 729.65625 1815.890625 L 722.128906 1801.710938 L 712.230469 1801.710938 L 728.234375 1829.71875 Z M 776.617188 1825.449219 C 776.617188 1839.628906 787.332031 1850.679688 801.507812 1850.679688 C 815.679688 1850.679688 826.398438 1839.628906 826.398438 1825.449219 C 826.398438 1811.679688 815.679688 1800.898438 801.507812 1800.898438 C 787.332031 1800.898438 776.617188 1811.679688 776.617188 1825.449219 Z M 785.636719 1825.449219 C 785.636719 1815.960938 792.691406 1808.898438 801.507812 1808.898438 C 810.324219 1808.898438 817.375 1815.960938 817.375 1825.449219 C 817.375 1835.351562 810.324219 1842.679688 801.507812 1842.679688 C 792.691406 1842.679688 785.636719 1835.351562 785.636719 1825.449219 Z M 856.46875 1832.570312 C 856.46875 1843.351562 864.269531 1850.679688 875.933594 1850.679688 C 887.527344 1850.679688 895.328125 1843.351562 895.328125 1832.570312 L 895.328125 1801.710938 L 886.578125 1801.710938 L 886.578125 1832.5 C 886.578125 1839.011719 882.308594 1842.679688 875.867188 1842.679688 C 869.421875 1842.679688 865.21875 1839.011719 865.21875 1832.570312 L 865.21875 1801.710938 L 856.46875 1801.710938 Z M 928.722656 1849.859375 L 937.476562 1849.859375 L 937.476562 1831.890625 L 945.886719 1831.890625 L 955.445312 1849.859375 L 965.210938 1849.859375 L 955.3125 1831.890625 C 954.363281 1830.199219 953.683594 1829.519531 953.683594 1829.519531 L 953.683594 1829.378906 C 958.773438 1827.351562 961.824219 1821.988281 961.824219 1816.230469 C 961.824219 1809.851562 958.773438 1805.238281 953.957031 1803.070312 C 951.851562 1802.121094 949.480469 1801.710938 944.257812 1801.710938 L 928.722656 1801.710938 Z M 937.476562 1824.300781 L 937.476562 1809.238281 L 944.121094 1809.238281 C 950.96875 1809.238281 952.9375 1812.089844 952.9375 1816.699219 C 952.9375 1821.519531 950.023438 1824.300781 945.34375 1824.300781 Z M 1008.378906 1825.589844 C 1008.378906 1839.761719 1018.550781 1850.679688 1033.269531 1850.679688 C 1045.539062 1850.679688 1052.191406 1842.878906 1052.191406 1842.878906 L 1047.570312 1836.570312 C 1047.570312 1836.570312 1041.949219 1842.679688 1033.601562 1842.679688 C 1023.570312 1842.679688 1017.398438 1834.609375 1017.398438 1825.449219 C 1017.398438 1816.5 1023.359375 1808.898438 1033.539062 1808.898438 C 1041.199219 1808.898438 1046.691406 1813.988281 1046.691406 1813.988281 L 1050.898438 1807.480469 C 1050.898438 1807.480469 1044.859375 1800.898438 1033.128906 1800.898438 C 1018.949219 1800.898438 1008.378906 1811.621094 1008.378906 1825.589844 Z M 1082.121094 1849.859375 L 1090.871094 1849.859375 L 1090.871094 1831.890625 L 1099.28125 1831.890625 L 1108.839844 1849.859375 L 1118.609375 1849.859375 L 1108.710938 1831.890625 C 1107.761719 1830.199219 1107.078125 1829.519531 1107.078125 1829.519531 L 1107.078125 1829.378906 C 1112.171875 1827.351562 1115.21875 1821.988281 1115.21875 1816.230469 C 1115.21875 1809.851562 1112.171875 1805.238281 1107.351562 1803.070312 C 1105.25 1802.121094 1102.878906 1801.710938 1097.648438 1801.710938 L 1082.121094 1801.710938 Z M 1090.871094 1824.300781 L 1090.871094 1809.238281 L 1097.519531 1809.238281 C 1104.371094 1809.238281 1106.328125 1812.089844 1106.328125 1816.699219 C 1106.328125 1821.519531 1103.421875 1824.300781 1098.738281 1824.300781 Z M 1148.609375 1849.859375 L 1178.519531 1849.859375 L 1178.519531 1842.339844 L 1157.359375 1842.339844 L 1157.359375 1829.378906 L 1173.570312 1829.378906 L 1173.570312 1821.859375 L 1157.359375 1821.859375 L 1157.359375 1809.238281 L 1177.441406 1809.238281 L 1177.441406 1801.710938 L 1148.609375 1801.710938 Z M 1237.488281 1849.859375 L 1246.511719 1849.859375 L 1229.550781 1801.710938 L 1220.398438 1801.710938 L 1203.441406 1849.859375 L 1212.460938 1849.859375 L 1216.53125 1837.519531 L 1233.421875 1837.519531 Z M 1225.078125 1810.058594 C 1225.078125 1810.058594 1226.089844 1814.800781 1226.96875 1817.519531 L 1231.25 1830.398438 L 1218.628906 1830.398438 L 1222.910156 1817.519531 C 1223.859375 1814.800781 1224.941406 1810.058594 1224.941406 1810.058594 Z M 1281.730469 1849.859375 L 1290.480469 1849.859375 L 1290.480469 1809.238281 L 1306.289062 1809.238281 L 1306.289062 1801.710938 L 1265.929688 1801.710938 L 1265.929688 1809.238281 L 1281.730469 1809.238281 Z M 1334.53125 1849.859375 L 1343.28125 1849.859375 L 1343.28125 1801.710938 L 1334.53125 1801.710938 Z M 1388.738281 1849.859375 L 1397.421875 1849.859375 L 1414.988281 1801.710938 L 1405.628906 1801.710938 L 1394.980469 1833.109375 C 1394.03125 1835.890625 1393.21875 1840.171875 1393.148438 1840.171875 L 1393.019531 1840.171875 C 1392.949219 1840.171875 1392.128906 1835.890625 1391.179688 1833.109375 L 1380.601562 1801.710938 L 1371.179688 1801.710938 Z M 1442.890625 1849.859375 L 1472.800781 1849.859375 L 1472.800781 1842.339844 L 1451.640625 1842.339844 L 1451.640625 1829.378906 L 1467.851562 1829.378906 L 1467.851562 1821.859375 L 1451.640625 1821.859375 L 1451.640625 1809.238281 L 1471.710938 1809.238281 L 1471.710938 1801.710938 L 1442.890625 1801.710938 Z M 1516.570312 1844.101562 C 1516.570312 1844.101562 1522.46875 1850.679688 1533.191406 1850.679688 C 1543.230469 1850.679688 1549.058594 1844.238281 1549.058594 1836.570312 C 1549.058594 1821.179688 1526.410156 1823.28125 1526.410156 1814.738281 C 1526.410156 1811.339844 1529.589844 1808.96875 1533.660156 1808.96875 C 1539.699219 1808.96875 1544.308594 1813.171875 1544.308594 1813.171875 L 1548.109375 1806.050781 C 1548.109375 1806.050781 1543.230469 1800.898438 1533.730469 1800.898438 C 1524.511719 1800.898438 1517.589844 1806.871094 1517.589844 1814.871094 C 1517.589844 1829.660156 1540.308594 1828.160156 1540.308594 1836.78125 C 1540.308594 1840.710938 1536.988281 1842.609375 1533.320312 1842.609375 C 1526.539062 1842.609375 1521.320312 1837.519531 1521.320312 1837.519531 Z M 1579.671875 1849.859375 L 1609.238281 1849.859375 L 1609.238281 1842.339844 L 1588.421875 1842.339844 L 1588.421875 1801.710938 L 1579.671875 1801.710938 Z M 1633.960938 1825.449219 C 1633.960938 1839.628906 1644.671875 1850.679688 1658.851562 1850.679688 C 1673.019531 1850.679688 1683.738281 1839.628906 1683.738281 1825.449219 C 1683.738281 1811.679688 1673.019531 1800.898438 1658.851562 1800.898438 C 1644.671875 1800.898438 1633.960938 1811.679688 1633.960938 1825.449219 Z M 1642.980469 1825.449219 C 1642.980469 1815.960938 1650.03125 1808.898438 1658.851562 1808.898438 C 1667.671875 1808.898438 1674.71875 1815.960938 1674.71875 1825.449219 C 1674.71875 1835.351562 1667.671875 1842.679688 1658.851562 1842.679688 C 1650.03125 1842.679688 1642.980469 1835.351562 1642.980469 1825.449219 Z M 1711.230469 1825.71875 C 1711.230469 1840.851562 1722.148438 1850.679688 1734.828125 1850.679688 C 1743.789062 1850.679688 1748.800781 1845.53125 1748.800781 1845.53125 L 1748.941406 1845.53125 C 1748.941406 1845.53125 1748.871094 1846.539062 1748.871094 1847.558594 L 1748.871094 1849.859375 L 1756.328125 1849.859375 L 1756.328125 1824.5 L 1741.070312 1824.5 L 1741.070312 1832.03125 L 1748.46875 1832.03125 L 1748.46875 1837.660156 C 1748.46875 1837.660156 1743.648438 1842.679688 1736.390625 1842.679688 C 1727.378906 1842.679688 1720.25 1835.890625 1720.25 1825.449219 C 1720.25 1816.359375 1726.019531 1808.898438 1736.800781 1808.898438 C 1744.460938 1808.898438 1749.621094 1813.511719 1749.621094 1813.511719 L 1753.960938 1807 C 1753.960938 1807 1747.851562 1800.898438 1736.058594 1800.898438 C 1721.738281 1800.898438 1711.230469 1811.75 1711.230469 1825.71875 Z M 1815.910156 1849.859375 L 1824.929688 1849.859375 L 1807.96875 1801.710938 L 1798.820312 1801.710938 L 1781.859375 1849.859375 L 1790.878906 1849.859375 L 1794.949219 1837.519531 L 1811.839844 1837.519531 Z M 1803.5 1810.058594 C 1803.5 1810.058594 1804.511719 1814.800781 1805.398438 1817.519531 L 1809.671875 1830.398438 L 1797.050781 1830.398438 L 1801.328125 1817.519531 C 1802.28125 1814.800781 1803.359375 1810.058594 1803.359375 1810.058594 Z M 1852.96875 1849.859375 L 1861.710938 1849.859375 L 1861.710938 1822.128906 C 1861.710938 1819.28125 1861.238281 1814.671875 1861.238281 1814.671875 L 1861.378906 1814.671875 C 1861.378906 1814.671875 1863.539062 1819.351562 1865.378906 1822.128906 L 1883.621094 1849.859375 L 1892.300781 1849.859375 L 1892.300781 1801.710938 L 1883.621094 1801.710938 L 1883.621094 1829.519531 C 1883.621094 1832.371094 1884.089844 1836.980469 1884.089844 1836.980469 L 1883.960938 1836.980469 C 1883.960938 1836.980469 1881.789062 1832.300781 1879.960938 1829.519531 L 1861.710938 1801.710938 L 1852.96875 1801.710938 L 1852.96875 1849.859375 "/>
<path fill-rule="nonzero" fill="rgb(1.907349%, 1.159668%, 0.575256%)" fill-opacity="1" d="M 802.925781 1749.25 C 783.039062 1749.25 765.175781 1745.140625 749.335938 1736.941406 C 733.496094 1728.730469 721.128906 1717.339844 712.230469 1702.769531 C 703.324219 1688.210938 698.875 1671.671875 698.875 1653.179688 C 698.875 1634.679688 703.324219 1618.148438 712.230469 1603.578125 C 721.128906 1589.019531 733.496094 1577.628906 749.335938 1569.421875 C 765.175781 1561.210938 783.039062 1557.109375 802.925781 1557.109375 C 822.578125 1557.109375 839.742188 1561.210938 854.425781 1569.421875 C 869.109375 1577.628906 879.804688 1589.359375 886.507812 1604.621094 L 844.546875 1627.171875 C 834.828125 1610.058594 820.84375 1601.5 802.574219 1601.5 C 788.472656 1601.5 776.792969 1606.128906 767.546875 1615.371094 C 758.296875 1624.621094 753.675781 1637.21875 753.675781 1653.179688 C 753.675781 1669.128906 758.296875 1681.730469 767.546875 1690.980469 C 776.792969 1700.230469 788.472656 1704.851562 802.574219 1704.851562 C 821.074219 1704.851562 835.0625 1696.300781 844.546875 1679.191406 L 886.507812 1702.078125 C 879.804688 1716.878906 869.109375 1728.441406 854.425781 1736.761719 C 839.742188 1745.089844 822.578125 1749.25 802.925781 1749.25 Z M 1004.078125 1749.25 C 984.429688 1749.25 966.800781 1745.140625 951.1875 1736.941406 C 935.585938 1728.730469 923.386719 1717.339844 914.601562 1702.769531 C 905.8125 1688.210938 901.421875 1671.671875 901.421875 1653.179688 C 901.421875 1634.679688 905.8125 1618.148438 914.601562 1603.578125 C 923.386719 1589.019531 935.585938 1577.628906 951.1875 1569.421875 C 966.800781 1561.210938 984.429688 1557.109375 1004.078125 1557.109375 C 1023.730469 1557.109375 1041.308594 1561.210938 1056.800781 1569.421875 C 1072.289062 1577.628906 1084.429688 1589.019531 1093.21875 1603.578125 C 1102 1618.148438 1106.390625 1634.679688 1106.390625 1653.179688 C 1106.390625 1671.671875 1102 1688.210938 1093.21875 1702.769531 C 1084.429688 1717.339844 1072.289062 1728.730469 1056.800781 1736.941406 C 1041.308594 1745.140625 1023.730469 1749.25 1004.078125 1749.25 Z M 1004.078125 1704.851562 C 1017.949219 1704.851562 1029.339844 1700.171875 1038.25 1690.808594 C 1047.148438 1681.441406 1051.589844 1668.898438 1051.589844 1653.179688 C 1051.589844 1637.460938 1047.148438 1624.910156 1038.25 1615.550781 C 1029.339844 1606.179688 1017.949219 1601.5 1004.078125 1601.5 C 990.210938 1601.5 978.761719 1606.179688 969.742188 1615.550781 C 960.726562 1624.910156 956.21875 1637.460938 956.21875 1653.179688 C 956.21875 1668.898438 960.726562 1681.441406 969.742188 1690.808594 C 978.761719 1700.171875 990.210938 1704.851562 1004.078125 1704.851562 Z M 1231.25 1749.25 C 1211.601562 1749.25 1193.96875 1745.140625 1178.359375 1736.941406 C 1162.75 1728.730469 1150.558594 1717.339844 1141.769531 1702.769531 C 1132.980469 1688.210938 1128.589844 1671.671875 1128.589844 1653.179688 C 1128.589844 1634.679688 1132.980469 1618.148438 1141.769531 1603.578125 C 1150.558594 1589.019531 1162.75 1577.628906 1178.359375 1569.421875 C 1193.96875 1561.210938 1211.601562 1557.109375 1231.25 1557.109375 C 1250.910156 1557.109375 1268.480469 1561.210938 1283.96875 1569.421875 C 1299.460938 1577.628906 1311.601562 1589.019531 1320.378906 1603.578125 C 1329.171875 1618.148438 1333.570312 1634.679688 1333.570312 1653.179688 C 1333.570312 1671.671875 1329.171875 1688.210938 1320.378906 1702.769531 C 1311.601562 1717.339844 1299.460938 1728.730469 1283.96875 1736.941406 C 1268.480469 1745.140625 1250.910156 1749.25 1231.25 1749.25 Z M 1231.25 1704.851562 C 1245.128906 1704.851562 1256.511719 1700.171875 1265.410156 1690.808594 C 1274.320312 1681.441406 1278.769531 1668.898438 1278.769531 1653.179688 C 1278.769531 1637.460938 1274.320312 1624.910156 1265.410156 1615.550781 C 1256.511719 1606.179688 1245.128906 1601.5 1231.25 1601.5 C 1217.378906 1601.5 1205.929688 1606.179688 1196.921875 1615.550781 C 1187.898438 1624.910156 1183.390625 1637.460938 1183.390625 1653.179688 C 1183.390625 1668.898438 1187.898438 1681.441406 1196.921875 1690.808594 C 1205.929688 1700.171875 1217.378906 1704.851562 1231.25 1704.851562 Z M 1449.75 1673.289062 L 1423.738281 1698.960938 L 1423.738281 1746.46875 L 1369.628906 1746.46875 L 1369.628906 1489.128906 L 1423.738281 1489.128906 L 1423.738281 1634.800781 L 1502.820312 1559.878906 L 1567.320312 1559.878906 L 1489.628906 1638.960938 L 1574.261719 1746.46875 L 1508.710938 1746.46875 Z M 1597.148438 1559.878906 L 1651.261719 1559.878906 L 1651.261719 1746.46875 L 1597.148438 1746.46875 Z M 1814.960938 1557.109375 C 1838.078125 1557.109375 1856.75 1564.039062 1870.96875 1577.921875 C 1885.191406 1591.789062 1892.300781 1612.371094 1892.300781 1639.648438 L 1892.300781 1746.46875 L 1838.191406 1746.46875 L 1838.191406 1647.96875 C 1838.191406 1633.179688 1834.960938 1622.140625 1828.480469 1614.851562 C 1822.011719 1607.570312 1812.648438 1603.929688 1800.390625 1603.929688 C 1786.75 1603.929688 1775.878906 1608.148438 1767.789062 1616.589844 C 1759.699219 1625.03125 1755.648438 1637.570312 1755.648438 1654.21875 L 1755.648438 1746.46875 L 1701.550781 1746.46875 L 1701.550781 1559.878906 L 1753.21875 1559.878906 L 1753.21875 1581.730469 C 1760.390625 1573.871094 1769.289062 1567.800781 1779.929688 1563.519531 C 1790.558594 1559.25 1802.238281 1557.109375 1814.960938 1557.109375 Z M 2135.769531 1559.878906 L 2135.769531 1715.261719 C 2135.769531 1749.480469 2126.871094 1774.910156 2109.070312 1791.558594 C 2091.261719 1808.210938 2065.25 1816.53125 2031.03125 1816.53125 C 2013 1816.53125 1995.890625 1814.328125 1979.699219 1809.941406 C 1963.519531 1805.550781 1950.101562 1799.191406 1939.46875 1790.871094 L 1960.96875 1752.019531 C 1968.828125 1758.5 1978.769531 1763.640625 1990.800781 1767.460938 C 2002.820312 1771.269531 2014.839844 1773.179688 2026.871094 1773.179688 C 2045.589844 1773.179688 2059.410156 1768.960938 2068.308594 1760.519531 C 2077.210938 1752.078125 2081.671875 1739.308594 2081.671875 1722.199219 L 2081.671875 1714.21875 C 2067.558594 1729.710938 2047.910156 1737.460938 2022.710938 1737.460938 C 2005.601562 1737.460938 1989.929688 1733.699219 1975.710938 1726.179688 C 1961.488281 1718.671875 1950.21875 1708.089844 1941.898438 1694.449219 C 1933.570312 1680.808594 1929.410156 1665.089844 1929.410156 1647.28125 C 1929.410156 1629.480469 1933.570312 1613.75 1941.898438 1600.109375 C 1950.21875 1586.46875 1961.488281 1575.890625 1975.710938 1568.378906 C 1989.929688 1560.859375 2005.601562 1557.109375 2022.710938 1557.109375 C 2049.761719 1557.109375 2070.328125 1566.011719 2084.441406 1583.808594 L 2084.441406 1559.878906 Z M 2033.460938 1693.058594 C 2047.789062 1693.058594 2059.53125 1688.839844 2068.660156 1680.398438 C 2077.800781 1671.960938 2082.359375 1660.921875 2082.359375 1647.28125 C 2082.359375 1633.640625 2077.800781 1622.601562 2068.660156 1614.160156 C 2059.53125 1605.71875 2047.789062 1601.5 2033.460938 1601.5 C 2019.121094 1601.5 2007.328125 1605.71875 1998.078125 1614.160156 C 1988.828125 1622.601562 1984.210938 1633.640625 1984.210938 1647.28125 C 1984.210938 1660.921875 1988.828125 1671.960938 1998.078125 1680.398438 C 2007.328125 1688.839844 2019.121094 1693.058594 2033.460938 1693.058594 "/>
<path fill-rule="evenodd" fill="rgb(97.257996%, 62.362671%, 11.183167%)" fill-opacity="1" d="M 1624.199219 1473.519531 C 1614.261719 1473.519531 1606.171875 1476.410156 1599.929688 1482.191406 C 1593.679688 1487.96875 1590.558594 1495.140625 1590.558594 1503.699219 C 1590.558594 1512.25 1593.679688 1519.421875 1599.929688 1525.199219 C 1606.171875 1530.980469 1614.261719 1533.871094 1624.199219 1533.871094 C 1634.148438 1533.871094 1642.238281 1530.921875 1648.480469 1525.03125 C 1654.71875 1519.128906 1657.839844 1511.671875 1657.839844 1502.660156 C 1657.839844 1494.328125 1654.71875 1487.398438 1648.480469 1481.851562 C 1642.238281 1476.300781 1634.148438 1473.519531 1624.199219 1473.519531 "/>
<path fill-rule="nonzero" fill="rgb(97.257996%, 62.362671%, 11.183167%)" fill-opacity="1" d="M 1699.078125 509.371094 C 1611.671875 444.78125 1523.949219 420.738281 1415.75 417.039062 C 1302.058594 420.019531 1218.058594 448.929688 1126.160156 515.980469 C 1116.308594 523.570312 1107.050781 531.25 1097.769531 539.519531 C 1023.429688 608.761719 982.226562 675.769531 952.832031 773.058594 C 924.203125 886.101562 928.859375 976.640625 968.941406 1086.101562 C 1007.628906 1177.921875 1053.550781 1240.261719 1131.988281 1301.238281 C 1145.191406 1311.128906 1158.140625 1319.910156 1172.199219 1328.550781 C 1274.109375 1387.949219 1364.660156 1407.140625 1482.390625 1397.539062 C 1598.871094 1381.769531 1683.03125 1343.371094 1768.691406 1262.820312 C 1787.601562 1243.980469 1803 1226.148438 1818.71875 1204.601562 C 1882.109375 1107.441406 1921.089844 935.761719 1888.160156 995.890625 C 1834.480469 1097.839844 1825.871094 1134.859375 1732.878906 1224.140625 C 1715.71875 1238.878906 1699.308594 1251.148438 1680.320312 1263.46875 C 1612.398438 1305.210938 1554.941406 1325.140625 1475.769531 1333.980469 C 1372.640625 1341.390625 1295.269531 1324.371094 1204.851562 1273.96875 C 1116.679688 1219.488281 1064.851562 1159.011719 1022.398438 1064.21875 C 1013.109375 1041.449219 1006.390625 1020.648438 1000.601562 996.738281 C 984.367188 920.789062 984.605469 861.351562 1002.558594 786 C 1031.390625 685.238281 1073.570312 617.449219 1153.058594 549.710938 C 1204.289062 508.96875 1248.21875 485.460938 1310.660156 465.808594 C 1347.300781 455.21875 1378.640625 449.589844 1416.648438 446.871094 C 1508.269531 443.488281 1580.621094 456.539062 1662.378906 497.570312 C 1663.019531 497.910156 1709.96875 524.601562 1699.078125 509.371094 Z M 1584.410156 452.199219 C 1584.210938 452.140625 1584.019531 452.070312 1583.820312 452 "/>
<path fill-rule="evenodd" fill="rgb(97.257996%, 62.362671%, 11.183167%)" fill-opacity="1" d="M 1177.640625 699.890625 C 1193.570312 903.550781 1325.410156 854.941406 1373.199219 923.941406 C 1373.199219 923.941406 1366.691406 827.328125 1254.46875 761.980469 C 1254.46875 761.980469 1343.820312 798.25 1371.261719 868.371094 C 1391.089844 707.558594 1225.570312 726.28125 1177.640625 699.890625 "/>
<path fill-rule="evenodd" fill="rgb(97.257996%, 62.362671%, 11.183167%)" fill-opacity="1" d="M 1672.300781 554.210938 C 1646.679688 881.140625 1480.511719 810.910156 1388.769531 938.578125 C 1388.769531 938.578125 1372.578125 756.628906 1574.730469 656.980469 C 1498.679688 682.859375 1428.128906 721.988281 1383.570312 839.800781 C 1341.070312 607.46875 1602.621094 610.53125 1672.300781 554.210938 "/>
<path fill-rule="evenodd" fill="rgb(1.907349%, 1.159668%, 0.575256%)" fill-opacity="1" d="M 1623.640625 938.789062 C 1689.5 782.128906 1770.601562 588.878906 1778.121094 569.328125 C 1788.070312 543.488281 1758.398438 530.898438 1747.089844 556.871094 C 1738.859375 575.761719 1661.050781 778.410156 1599.628906 938.789062 L 1623.640625 938.789062 "/>
<path fill-rule="evenodd" fill="rgb(1.907349%, 1.159668%, 0.575256%)" fill-opacity="1" d="M 1666.660156 938.789062 C 1747.640625 801.410156 1836.550781 650.351562 1845.730469 633.648438 C 1859.058594 609.378906 1831.351562 592.921875 1816.648438 617.128906 C 1806.808594 633.328125 1717.761719 795.621094 1639.398438 938.789062 L 1666.660156 938.789062 "/>
<path fill-rule="evenodd" fill="rgb(97.257996%, 62.362671%, 11.183167%)" fill-opacity="1" d="M 1780.789062 957.121094 C 1763.800781 1042.109375 1723.960938 1110.890625 1661.28125 1163.480469 C 1634.058594 1186.320312 1604.53125 1204.289062 1572.699219 1217.410156 C 1573.210938 1219.800781 1573.480469 1222.28125 1573.480469 1224.808594 L 1573.480469 1260.289062 L 1291.761719 1260.289062 L 1291.761719 1224.808594 C 1291.761719 1222.148438 1292.058594 1219.550781 1292.628906 1217.050781 C 1262.609375 1204.421875 1234.390625 1187.359375 1207.941406 1165.871094 C 1142.609375 1112.75 1101.449219 1043.171875 1084.449219 957.121094 L 1780.789062 957.121094 "/>
<path fill-rule="nonzero" fill="rgb(100%, 100%, 100%)" fill-opacity="1" d="M 2690.679688 1827.5 C 2651.871094 1798.820312 2612.929688 1788.148438 2564.890625 1786.5 C 2514.421875 1787.828125 2477.128906 1800.660156 2436.328125 1830.429688 C 2431.960938 1833.800781 2427.851562 1837.210938 2423.71875 1840.878906 C 2390.71875 1871.621094 2372.429688 1901.371094 2359.378906 1944.558594 C 2346.671875 1994.75 2348.738281 2034.941406 2366.53125 2083.539062 C 2383.710938 2124.300781 2404.089844 2151.980469 2438.921875 2179.050781 C 2444.78125 2183.441406 2450.53125 2187.339844 2456.769531 2191.171875 C 2502.011719 2217.539062 2542.210938 2226.058594 2594.480469 2221.800781 C 2646.191406 2214.800781 2683.558594 2197.75 2721.589844 2161.988281 C 2729.980469 2153.628906 2736.820312 2145.710938 2743.789062 2136.140625 C 2771.941406 2093.011719 2789.238281 2016.789062 2774.621094 2043.488281 C 2750.789062 2088.75 2746.96875 2105.179688 2705.691406 2144.820312 C 2698.070312 2151.359375 2690.78125 2156.808594 2682.351562 2162.28125 C 2652.199219 2180.808594 2626.691406 2189.660156 2591.539062 2193.582031 C 2545.75 2196.871094 2511.410156 2189.320312 2471.269531 2166.941406 C 2432.121094 2142.761719 2409.109375 2115.898438 2390.269531 2073.820312 C 2386.140625 2063.710938 2383.160156 2054.480469 2380.578125 2043.871094 C 2373.378906 2010.148438 2373.488281 1983.75 2381.460938 1950.308594 C 2394.25 1905.570312 2412.980469 1875.480469 2448.269531 1845.398438 C 2471.019531 1827.320312 2490.519531 1816.878906 2518.238281 1808.160156 C 2534.511719 1803.449219 2548.421875 1800.960938 2565.289062 1799.75 C 2605.96875 1798.25 2638.089844 1804.039062 2674.378906 1822.261719 C 2674.671875 1822.410156 2695.511719 1834.261719 2690.679688 1827.5 Z M 2639.769531 1802.121094 C 2639.679688 1802.089844 2639.601562 1802.058594 2639.511719 1802.03125 "/>
<path fill-rule="evenodd" fill="rgb(100%, 100%, 100%)" fill-opacity="1" d="M 2459.179688 1912.078125 C 2466.261719 2002.488281 2524.789062 1980.910156 2546 2011.539062 C 2546 2011.539062 2543.109375 1968.648438 2493.289062 1939.640625 C 2493.289062 1939.640625 2532.960938 1955.738281 2545.140625 1986.871094 C 2553.949219 1915.480469 2480.460938 1923.789062 2459.179688 1912.078125 "/>
<path fill-rule="evenodd" fill="rgb(100%, 100%, 100%)" fill-opacity="1" d="M 2678.789062 1847.398438 C 2667.421875 1992.539062 2593.640625 1961.371094 2552.921875 2018.039062 C 2552.921875 2018.039062 2545.730469 1937.269531 2635.46875 1893.019531 C 2601.710938 1904.519531 2570.390625 1921.890625 2550.609375 1974.191406 C 2531.738281 1871.050781 2647.851562 1872.410156 2678.789062 1847.398438 "/>
<path fill-rule="evenodd" fill="rgb(100%, 100%, 100%)" fill-opacity="1" d="M 2657.191406 2018.140625 C 2686.429688 1948.589844 2722.429688 1862.789062 2725.769531 1854.109375 C 2730.191406 1842.640625 2717.019531 1837.050781 2711.988281 1848.578125 C 2708.339844 1856.96875 2673.800781 1946.929688 2646.53125 2018.140625 L 2657.191406 2018.140625 "/>
<path fill-rule="evenodd" fill="rgb(100%, 100%, 100%)" fill-opacity="1" d="M 2676.28125 2018.140625 C 2712.238281 1957.148438 2751.710938 1890.078125 2755.789062 1882.671875 C 2761.699219 1871.898438 2749.398438 1864.578125 2742.878906 1875.328125 C 2738.511719 1882.53125 2698.96875 1954.578125 2664.179688 2018.140625 L 2676.28125 2018.140625 "/>
<path fill-rule="evenodd" fill="rgb(100%, 100%, 100%)" fill-opacity="1" d="M 2726.960938 2026.28125 C 2719.410156 2064 2701.730469 2094.539062 2673.898438 2117.890625 C 2661.808594 2128.03125 2648.699219 2136.011719 2634.570312 2141.828125 C 2634.800781 2142.890625 2634.921875 2143.988281 2634.921875 2145.121094 L 2634.921875 2160.871094 L 2509.851562 2160.871094 L 2509.851562 2145.121094 C 2509.851562 2143.929688 2509.980469 2142.78125 2510.230469 2141.671875 C 2496.910156 2136.070312 2484.378906 2128.488281 2472.640625 2118.949219 C 2443.640625 2095.371094 2425.359375 2064.480469 2417.808594 2026.28125 L 2726.960938 2026.28125 "/>
</svg>
